<svg viewBox="0 0 24 24" fill="currentColor" width="32" height="32" xmlns="http://www.w3.org/2000/svg" xmlns:xlink="http://www.w3.org/1999/xlink">
    <path d="M20 22V4c0-1.103-0.897-2-2-2H6C4.897 2 4 2.897 4 4v18l8-4.572zM6 10V4h12v14.553l-6-3.428-6 3.428z" />
    <path d="M15.409 9.512c0.361-0.372 0.585-0.888 0.585-1.456S15.771 6.973 15.409 6.6a1.962 1.962 0 0 0-1.412-0.603c0 0-0.996-3e-3-1.997 1.029-1.001-1.032-1.997-1.029-1.997-1.029-0.552 0-1.051 0.23-1.412 0.603-0.362 0.373-0.585 0.887-0.585 1.456S8.229 9.14 8.591 9.512L12 13.203z" />
</svg>