<svg viewBox="0 0 24 24" fill="currentColor" width="32" height="32" xmlns="http://www.w3.org/2000/svg" xmlns:xlink="http://www.w3.org/1999/xlink">
    <path d="M21 10H3a1 1 0 0 0-1 1 10 10 0 0 0 5 8.66V21a1 1 0 0 0 1 1h8a1 1 0 0 0 1-1v-1.34A10 10 0 0 0 22 11a1 1 0 0 0-1-1zM15.55 18.16a1 1 0 0 0-0.55 0.9V20H9v-0.94a1 1 0 0 0-0.55-0.9A8 8 0 0 1 4.06 12h15.88a8 8 0 0 1-4.39 6.16zM9 9V7.93a4.53 4.53 0 0 0-1.28-3.15A2.49 2.49 0 0 1 7 3V2H5v1a4.53 4.53 0 0 0 1.28 3.17A2.49 2.49 0 0 1 7 7.93V9zM13 9V7.93a4.53 4.53 0 0 0-1.28-3.15A2.49 2.49 0 0 1 11 3V2H9v1a4.53 4.53 0 0 0 1.28 3.15A2.49 2.49 0 0 1 11 7.93V9zM17 9V7.93a4.53 4.53 0 0 0-1.28-3.15A2.49 2.49 0 0 1 15 3V2h-2v1a4.53 4.53 0 0 0 1.28 3.15A2.49 2.49 0 0 1 15 7.93V9z" />
</svg>