<svg viewBox="0 0 16 16" fill="currentColor" width="32" height="32" xmlns="http://www.w3.org/2000/svg" xmlns:xlink="http://www.w3.org/1999/xlink">
    <path d="M4 2.5A0.5 0.5 0 0 1 4.5 2h1A0.5 0.5 0 0 1 6 2.5v1A0.5 0.5 0 0 1 5.5 4h-1A0.5 0.5 0 0 1 4 3.5zM7 2.5A0.5 0.5 0 0 1 7.5 2h1A0.5 0.5 0 0 1 9 2.5v1A0.5 0.5 0 0 1 8.5 4h-1A0.5 0.5 0 0 1 7 3.5zM10.5 2A0.5 0.5 0 0 0 10 2.5v1A0.5 0.5 0 0 0 10.5 4h1A0.5 0.5 0 0 0 12 3.5v-1A0.5 0.5 0 0 0 11.5 2zM4 5.5A0.5 0.5 0 0 1 4.5 5h1A0.5 0.5 0 0 1 6 5.5v1A0.5 0.5 0 0 1 5.5 7h-1A0.5 0.5 0 0 1 4 6.5zM7.5 5A0.5 0.5 0 0 0 7 5.5v1A0.5 0.5 0 0 0 7.5 7h1A0.5 0.5 0 0 0 9 6.5v-1A0.5 0.5 0 0 0 8.5 5zM10 5.5A0.5 0.5 0 0 1 10.5 5h1A0.5 0.5 0 0 1 12 5.5v1A0.5 0.5 0 0 1 11.5 7h-1A0.5 0.5 0 0 1 10 6.5zM4.5 8A0.5 0.5 0 0 0 4 8.5v1A0.5 0.5 0 0 0 4.5 10h1A0.5 0.5 0 0 0 6 9.5v-1A0.5 0.5 0 0 0 5.5 8zM7 8.5A0.5 0.5 0 0 1 7.5 8h1A0.5 0.5 0 0 1 9 8.5v1A0.5 0.5 0 0 1 8.5 10h-1A0.5 0.5 0 0 1 7 9.5zM10.5 8A0.5 0.5 0 0 0 10 8.5v1a0.5 0.5 0 0 0 0.5 0.5h1A0.5 0.5 0 0 0 12 9.5v-1A0.5 0.5 0 0 0 11.5 8z" />
    <path d="M2 1a1 1 0 0 1 1-1h10a1 1 0 0 1 1 1v14a1 1 0 0 1-1 1H3a1 1 0 0 1-1-1zM13 1H3v14h3v-2.5A0.5 0.5 0 0 1 6.5 12h3a0.5 0.5 0 0 1 0.5 0.5V15h3z" />
</svg>