<svg viewBox="0 0 32 32" fill="currentColor" width="32" height="32" xmlns="http://www.w3.org/2000/svg" xmlns:xlink="http://www.w3.org/1999/xlink">
    <path d="M28 2H16a2.002 2.002 0 0 0-2 2v10H4a2.002 2.002 0 0 0-2 2v14h28V4a2.0023 2.0023 0 0 0-2-2zM9 28v-7h4v7zM28 28H15v-8a1 1 0 0 0-1-1H8a1 1 0 0 0-1 1v8H4V16h12V4h12z" />
    <rect width="2" height="2" x="18" y="8" />
    <rect width="2" height="2" x="24" y="8" />
    <rect width="2" height="2" x="18" y="14" />
    <rect width="2" height="2" x="24" y="14" />
    <rect width="2" height="2" x="18" y="19.999599" />
    <rect width="2" height="2" x="24" y="19.999599" />
</svg>