<svg viewBox="0 0 24 24" fill="currentColor" width="32" height="32" xmlns="http://www.w3.org/2000/svg" xmlns:xlink="http://www.w3.org/1999/xlink">
    <path d="M9 20h6v2H9zM16.906 13.712C17.936 12.506 19 11.259 19 9c0-3.859-3.141-7-7-7S5 5.141 5 9c0 2.285 1.067 3.528 2.101 4.73 0.358 0.418 0.729 0.851 1.084 1.349 0.144 0.206 0.38 0.996 0.591 1.921H8v2h8v-2h-0.774c0.213-0.927 0.45-1.719 0.593-1.925 0.352-0.503 0.726-0.94 1.087-1.363zM14.182 13.925C13.748 14.542 13.386 16 13.176 17h-2.351c-0.209-1.002-0.572-2.463-1.011-3.08a20.502 20.502 0 0 0-1.196-1.492C7.644 11.294 7 10.544 7 9c0-2.757 2.243-5 5-5s5 2.243 5 5c0 1.521-0.643 2.274-1.615 3.413-0.373 0.438-0.796 0.933-1.203 1.512z" />
</svg>