<svg viewBox="0 0 16 16" fill="currentColor" width="32" height="32" xmlns="http://www.w3.org/2000/svg" xmlns:xlink="http://www.w3.org/1999/xlink">
    <path d="M5 11a1 1 0 1 1-2 0 1 1 0 0 1 2 0M13 11a1 1 0 1 1-2 0 1 1 0 0 1 2 0M7 10a1 1 0 1 0 0 2h2a1 1 0 1 0 0-2zM8 4C6.124 4 4.574 4.109 3.448 4.226A0.5 0.5 0 0 0 3 4.723v3.554a0.5 0.5 0 0 0 0.448 0.497C4.574 8.891 6.124 9 8 9s3.426-0.109 4.552-0.226A0.5 0.5 0 0 0 13 8.277V4.723a0.5 0.5 0 0 0-0.448-0.497A44 44 0 0 0 8 4M8 3C6.163 3 4.647 3.107 3.552 3.22a0.5 0.5 0 1 1-0.104-0.994A44 44 0 0 1 8 2c1.876 0 3.426 0.109 4.552 0.226a0.5 0.5 0 1 1-0.104 0.994A43 43 0 0 0 8 3" />
    <path d="M15 8a1 1 0 0 0 1-1V5a1 1 0 0 0-1-1V2.64c0-1.188-0.845-2.232-2.064-2.372A44 44 0 0 0 8 0C5.9 0 4.208 0.136 3.064 0.268 1.845 0.408 1 1.452 1 2.64V4a1 1 0 0 0-1 1v2a1 1 0 0 0 1 1v3.5c0 0.818 0.393 1.544 1 2v2A0.5 0.5 0 0 0 2.5 16h2A0.5 0.5 0 0 0 5 15.5V14h6v1.5a0.5 0.5 0 0 0 0.5 0.5h2a0.5 0.5 0 0 0 0.5-0.5v-2c0.607-0.456 1-1.182 1-2zM8 1c2.056 0 3.71 0.134 4.822 0.261C13.498 1.339 14 1.921 14 2.64v8.86a1.5 1.5 0 0 1-1.5 1.5h-9A1.5 1.5 0 0 1 2 11.5V2.64c0-0.72 0.502-1.301 1.178-1.379A43 43 0 0 1 8 1" />
</svg>