<svg viewBox="0 0 32 32" fill="currentColor" width="32" height="32" xmlns="http://www.w3.org/2000/svg" xmlns:xlink="http://www.w3.org/1999/xlink">
    <rect width="28" height="2" x="2" y="28" />
    <path d="M24.5 11H8a2.002 2.002 0 0 0-2 2v8a5.0059 5.0059 0 0 0 5 5h8a5.0059 5.0059 0 0 0 5-5v-1h0.5a4.5 4.5 0 0 0 0-9zM22 21a3.0033 3.0033 0 0 1-3 3h-8a3.0033 3.0033 0 0 1-3-3v-8h14zM24.5 18H24v-5h0.5a2.5 2.5 0 0 1 0 5z" />
    <path d="M19 9h-2V8.854a1.9883 1.9883 0 0 0-1.1055-1.7886l-2.6836-1.3418A3.9788 3.9788 0 0 1 11 2.146V1h2v1.146a1.9892 1.9892 0 0 0 1.1055 1.7886l2.6836 1.3418A3.9792 3.9792 0 0 1 19 8.854z" />
</svg>