<svg viewBox="0 0 32 32" fill="currentColor" width="32" height="32" xmlns="http://www.w3.org/2000/svg" xmlns:xlink="http://www.w3.org/1999/xlink">
    <path d="M16 10.001c-4.419 0-8 3.581-8 8 0 4.418 3.581 8 8 8 4.418 0 8-3.582 8-8s-3.582-8-8-8zM20.555 21.906c-2.156 2.516-5.943 2.807-8.459 0.65-2.517-2.156-2.807-5.944-0.65-8.459 2.155-2.517 5.943-2.807 8.459-0.65 2.515 2.155 2.806 5.944 0.65 8.459zM16 14.001c0.276 0 0.5 0.224 0.5 0.5s-0.224 0.5-0.5 0.5c-1.657 0-2.999 1.343-3 2.999v2e-3c0 0.275-0.224 0.5-0.5 0.5s-0.5-0.225-0.5-0.5V18c1e-3-2.208 1.791-3.999 4-3.999zM29.492 9.042 25.158 8.319 23.785 4.885C23.326 3.74 22.232 3 21 3H11C9.768 3 8.674 3.74 8.214 4.886L6.842 8.319 2.509 9.042C1.055 9.283 0 10.527 0 12v15c0 1.654 1.346 3 3 3h26c1.654 0 3-1.346 3-3V12c0-1.473-1.055-2.717-2.508-2.958zM30 27c0 0.553-0.447 1-1 1H3c-0.553 0-1-0.447-1-1V12c0-0.489 0.354-0.906 0.836-0.986l5.444-0.907 1.791-4.478C10.224 5.25 10.591 5 11 5h10c0.408 0 0.775 0.249 0.928 0.629l1.791 4.478 5.445 0.907C29.646 11.094 30 11.511 30 12z" />
</svg>