<svg viewBox="0 0 24 24" fill="currentColor" width="32" height="32" xmlns="http://www.w3.org/2000/svg" xmlns:xlink="http://www.w3.org/1999/xlink">
    <path d="M20.772 10.156 19.404 6.051A2.995 2.995 0 0 0 16.559 4H7.441a2.995 2.995 0 0 0-2.845 2.051l-1.368 4.105A2.003 2.003 0 0 0 2 12v5c0 0.753 0.423 1.402 1.039 1.743C3.026 18.809 3 18.869 3 18.938V21a1 1 0 0 0 1 1h1a1 1 0 0 0 1-1v-2h12v2a1 1 0 0 0 1 1h1a1 1 0 0 0 1-1v-2.062c0-0.069-0.026-0.13-0.039-0.195A1.993 1.993 0 0 0 22 17v-5c0-0.829-0.508-1.541-1.228-1.844zM4 17v-5h16l2e-3 5zM7.441 6h9.117c0.431 0 0.813 0.274 0.949 0.684L18.613 10H5.387l1.105-3.316A1 1 0 0 1 7.441 6z" />
    <circle cx="6.5" cy="14.5" r="1.5" />
    <circle cx="17.5" cy="14.5" r="1.5" />
</svg>