<svg viewBox="0 0 24 24" fill="currentColor" width="32" height="32" xmlns="http://www.w3.org/2000/svg" xmlns:xlink="http://www.w3.org/1999/xlink">
    <path d="M20.995 6.9a0.998 0.998 0 0 0-0.548-0.795l-8-4a1 1 0 0 0-0.895 0l-8 4A1.002 1.002 0 0 0 3.005 6.9c-0.011 0.107-0.961 10.767 8.589 15.014a0.987 0.987 0 0 0 0.812 0c9.55-4.247 8.6-14.906 8.589-15.014zM12 19.897C5.231 16.625 4.911 9.642 4.966 7.635L12 4.118l7.029 3.515c0.037 1.989-0.328 9.018-7.029 12.264z" />
    <path d="M11 12.586 8.707 10.293 7.293 11.707 11 15.414l5.707-5.707-1.414-1.414z" />
</svg>