<svg viewBox="0 0 16 16" fill="currentColor" width="32" height="32" xmlns="http://www.w3.org/2000/svg" xmlns:xlink="http://www.w3.org/1999/xlink">
    <path d="M4.406 3.342A5.53 5.53 0 0 1 8 2c2.69 0 4.923 2 5.166 4.579C14.758 6.804 16 8.137 16 9.773 16 11.569 14.502 13 12.687 13H3.781C1.708 13 0 11.366 0 9.318 0 7.555 1.266 6.095 2.942 5.725 3.085 4.862 3.64 4.002 4.406 3.342M5.059 4.099c-0.757 0.653-1.153 1.44-1.153 2.056v0.448L3.461 6.652C2.064 6.805 1 7.952 1 9.318 1 10.785 2.23 12 3.781 12h8.906C13.98 12 15 10.988 15 9.773c0-1.216-1.02-2.228-2.313-2.228h-0.5v-0.5C12.188 4.825 10.328 3 8 3a4.53 4.53 0 0 0-2.941 1.099z" />
</svg>