<svg viewBox="0 0 24 24" fill="currentColor" width="32" height="32" xmlns="http://www.w3.org/2000/svg" xmlns:xlink="http://www.w3.org/1999/xlink">
    <path d="M4 21h9.62a3.995 3.995 0 0 0 3.037-1.397l5.102-5.952a1 1 0 0 0-0.442-1.6l-1.968-0.656a3.043 3.043 0 0 0-2.823 0.503l-3.185 2.547-0.617-1.235A3.98 3.98 0 0 0 9.146 11H4c-1.103 0-2 0.897-2 2v6c0 1.103 0.897 2 2 2zM4 13h5.146c0.763 0 1.448 0.423 1.789 1.105L11.382 15H7v2h6.014a0.996 0.996 0 0 0 0.442-0.11l3e-3-1e-3 4e-3-2e-3h3e-3l2e-3-1e-3h4e-3l1e-3-1e-3c9e-3 3e-3 3e-3-1e-3 3e-3-1e-3 0.01 0 2e-3-1e-3 2e-3-1e-3h1e-3l2e-3-1e-3 3e-3-1e-3 2e-3-1e-3 2e-3-1e-3 3e-3-1e-3 2e-3-1e-3c3e-3 0 1e-3-1e-3 2e-3-1e-3l3e-3-2e-3 2e-3-1e-3 2e-3-1e-3 3e-3-1e-3 2e-3-1e-3h1e-3l2e-3-1e-3h1e-3l2e-3-1e-3 2e-3-1e-3c9e-3-1e-3 3e-3-1e-3 3e-3-1e-3l2e-3-1e-3a0.915 0.915 0 0 0 0.11-0.078l4.146-3.317c0.262-0.208 0.623-0.273 0.94-0.167l0.557 0.186-4.133 4.823A2.029 2.029 0 0 1 13.62 19H4zM16 2h-0.017C15.82 2.002 14.977 2.039 14 2.705c-0.951-0.648-1.774-0.7-1.968-0.704L12.002 2h-4e-3c-0.801 0-1.555 0.313-2.119 0.878C9.313 3.445 9 4.198 9 5s0.313 1.555 0.861 2.104l3.414 3.586a1.006 1.006 0 0 0 1.45-1e-3l3.396-3.568C18.688 6.555 19 5.802 19 5s-0.313-1.555-0.878-2.121A2.978 2.978 0 0 0 16.002 2zM17 5c0 0.267-0.104 0.518-0.311 0.725L14 8.55 11.293 5.707C11.104 5.518 11 5.267 11 5s0.104-0.518 0.294-0.708A0.977 0.977 0 0 1 11.979 4c0.025 1e-3 0.502 0.032 1.067 0.485 0.081 0.065 0.163 0.139 0.247 0.222L14 5.414l0.707-0.707c0.084-0.083 0.166-0.157 0.247-0.222 0.529-0.425 0.976-0.478 1.052-0.484a0.987 0.987 0 0 1 0.701 0.292C16.896 4.482 17 4.733 17 5z" />
</svg>