<svg viewBox="0 0 16 16" fill="currentColor" width="32" height="32" xmlns="http://www.w3.org/2000/svg" xmlns:xlink="http://www.w3.org/1999/xlink">
    <path d="M8 15A7 7 0 1 1 8 1 7 7 0 0 1 8 15M8 16A8 8 0 1 0 8 0 8 8 0 0 0 8 16" />
    <path d="M4.285 9.567A0.5 0.5 0 0 1 4.968 9.75 3.5 3.5 0 0 0 8 11.5a3.5 3.5 0 0 0 3.032-1.75 0.5 0.5 0 1 1 0.866 0.5A4.5 4.5 0 0 1 8 12.5a4.5 4.5 0 0 1-3.898-2.25 0.5 0.5 0 0 1 0.183-0.683M7 6.5C7 7.328 6.552 8 6 8S5 7.328 5 6.5 5.448 5 6 5 7 5.672 7 6.5M11 6.5C11 7.328 10.552 8 10 8S9 7.328 9 6.5 9.448 5 10 5s1 0.672 1 1.5" />
</svg>