<svg viewBox="0 0 24 24" fill="currentColor" width="32" height="32" xmlns="http://www.w3.org/2000/svg" xmlns:xlink="http://www.w3.org/1999/xlink">
    <path d="M10.84 21.871 12 22a10.221 10.221 0 0 0-9.013-8.891L2 13l0.021 0.173a10.001 10.001 0 0 0 8.819 8.698zM21.979 13.173 22 13l-0.987 0.109c-4.7 0.523-8.427 4.2-9.013 8.891l1.16-0.129a10.001 10.001 0 0 0 8.819-8.698zM18.063 5.5a2.5 2.5 0 0 0-3.415-0.915c-0.062 0.035-0.111 0.081-0.168 0.121 5e-3-0.069 0.02-0.136 0.02-0.206a2.5 2.5 0 1 0-5 0c0 0.07 0.015 0.137 0.021 0.206-0.057-0.04-0.107-0.086-0.168-0.121a2.5 2.5 0 0 0-2.5 4.33C6.914 8.95 6.979 8.971 7.041 9 6.979 9.029 6.914 9.05 6.853 9.085a2.5 2.5 0 0 0 2.5 4.33c0.062-0.035 0.111-0.081 0.168-0.121C9.515 13.363 9.5 13.43 9.5 13.5a2.5 2.5 0 1 0 5 0c0-0.07-0.015-0.137-0.021-0.206 0.057 0.04 0.106 0.086 0.168 0.121a2.5 2.5 0 0 0 2.5-4.33C17.086 9.05 17.021 9.029 16.959 9c0.063-0.029 0.127-0.05 0.188-0.085A2.5 2.5 0 0 0 18.063 5.5zM12 12a3 3 0 1 1 0-6 3 3 0 0 1 0 6z" />
</svg>