<svg viewBox="0 0 16 16" fill="currentColor" width="32" height="32" xmlns="http://www.w3.org/2000/svg" xmlns:xlink="http://www.w3.org/1999/xlink">
    <path d="M12.166 8.94c-0.524 1.062-1.234 2.12-1.96 3.07A32 32 0 0 1 8 14.58a32 32 0 0 1-2.206-2.57c-0.726-0.95-1.436-2.008-1.96-3.07C3.304 7.867 3 6.862 3 6a5 5 0 0 1 10 0c0 0.862-0.305 1.867-0.834 2.94M8 16c0 0 6-5.686 6-10A6 6 0 0 0 2 6c0 4.314 6 10 6 10" />
    <path d="M8 8a2 2 0 1 1 0-4 2 2 0 0 1 0 4M8 9a3 3 0 1 0 0-6 3 3 0 0 0 0 6" />
</svg>