<svg viewBox="0 0 24 24" fill="currentColor" width="32" height="32" xmlns="http://www.w3.org/2000/svg" xmlns:xlink="http://www.w3.org/1999/xlink">
    <path d="M12 18c4 0 5-4 5-4H7c0 0 1 4 5 4z" />
    <path d="M12 2C6.486 2 2 6.486 2 12s4.486 10 10 10 10-4.486 10-10S17.514 2 12 2zM12 20c-4.411 0-8-3.589-8-8s3.589-8 8-8 8 3.589 8 8-3.589 8-8 8z" />
    <path d="M13 12l2 0.012C15.012 11.55 15.194 11 16 11s0.988 0.55 1 1h2c0-1.206-0.799-3-3-3s-3 1.794-3 3zM8 11c0.806 0 0.988 0.55 1 1h2c0-1.206-0.799-3-3-3s-3 1.794-3 3l2 0.012C7.012 11.55 7.194 11 8 11z" />
</svg>