<svg viewBox="0 0 24 24" fill="currentColor" width="32" height="32" xmlns="http://www.w3.org/2000/svg" xmlns:xlink="http://www.w3.org/1999/xlink">
    <path d="M12 4.595a5.904 5.904 0 0 0-3.996-1.558 5.942 5.942 0 0 0-4.213 1.758c-2.353 2.363-2.352 6.059 2e-3 8.412l7.332 7.332c0.17 0.299 0.498 0.492 0.875 0.492a0.99 0.99 0 0 0 0.792-0.409l7.415-7.415c2.354-2.354 2.354-6.049-2e-3-8.416a5.938 5.938 0 0 0-4.209-1.754A5.906 5.906 0 0 0 12 4.595zM18.791 6.205c1.563 1.571 1.564 4.025 2e-3 5.588L12 18.586 5.207 11.793c-1.562-1.563-1.561-4.017-2e-3-5.584 0.76-0.756 1.754-1.172 2.799-1.172s2.035 0.416 2.789 1.17l0.5 0.5a0.999 0.999 0 0 0 1.414 0l0.5-0.5c1.512-1.509 4.074-1.505 5.584-2e-3z" />
</svg>