<svg viewBox="0 0 24 24" fill="currentColor" width="32" height="32" xmlns="http://www.w3.org/2000/svg" xmlns:xlink="http://www.w3.org/1999/xlink">
    <path d="M12 2C6.486 2 2 6.486 2 12s4.486 10 10 10 10-4.486 10-10S17.514 2 12 2zM12 20c-4.411 0-8-3.589-8-8s3.589-8 8-8 8 3.589 8 8-3.589 8-8 8z" />
    <path d="M12 18c4 0 5-4 5-4H7c0 0 1 4 5 4zM17.555 8.832 16.446 7.168l-3 2a1.001 1.001 0 0 0 0.108 1.727l4 2 0.895-1.789-2.459-1.229zM10.998 10.062a1 1 0 0 0-0.443-0.894l-3-2-1.11 1.664 1.566 1.044-2.459 1.229 0.895 1.789 4-2a0.998 0.998 0 0 0 0.551-0.832z" />
</svg>