<svg viewBox="0 0 16 16" fill="currentColor" width="32" height="32" xmlns="http://www.w3.org/2000/svg" xmlns:xlink="http://www.w3.org/1999/xlink">
    <path d="M2 6a6 6 0 1 1 10.174 4.31c-0.203 0.196-0.359 0.4-0.453 0.619l-0.762 1.769A0.5 0.5 0 0 1 10.5 13a0.5 0.5 0 0 1 0 1 0.5 0.5 0 0 1 0 1l-0.224 0.447A1 1 0 0 1 9.382 16H6.618a1 1 0 0 1-0.894-0.553L5.5 15a0.5 0.5 0 0 1 0-1 0.5 0.5 0 0 1 0-1 0.5 0.5 0 0 1-0.46-0.302l-0.761-1.77a2 2 0 0 0-0.453-0.618A5.98 5.98 0 0 1 2 6M8 1a5 5 0 0 0-3.479 8.592c0.263 0.254 0.514 0.564 0.676 0.941L5.83 12h4.342l0.632-1.467c0.162-0.377 0.413-0.687 0.676-0.941A5 5 0 0 0 8 1" />
</svg>