<svg viewBox="0 0 16 16" fill="currentColor" width="32" height="32" xmlns="http://www.w3.org/2000/svg" xmlns:xlink="http://www.w3.org/1999/xlink">
    <path d="M9.5 2.672a0.5 0.5 0 1 0 1 0V0.843a0.5 0.5 0 0 0-1 0zM14 2.707A0.5 0.5 0 0 0 13.293 2L12 3.293A0.5 0.5 0 1 0 12.707 4zM7.293 4A0.5 0.5 0 1 0 8 3.293L6.707 2A0.5 0.5 0 0 0 6 2.707zM6.672 6.5a0.5 0.5 0 1 0 0-1H4.843a0.5 0.5 0 1 0 0 1zM15.157 6.5a0.5 0.5 0 1 0 0-1h-1.829a0.5 0.5 0 0 0 0 1zM13.293 10A0.5 0.5 0 1 0 14 9.293L12.707 8A0.5 0.5 0 1 0 12 8.707zM9.5 11.157a0.5 0.5 0 0 0 1 0V9.328a0.5 0.5 0 0 0-1 0zM11.354 6.06a0.5 0.5 0 0 0 0-0.706l-0.708-0.708a0.5 0.5 0 0 0-0.707 0L8.646 5.94a0.5 0.5 0 0 0 0 0.707l0.708 0.708a0.5 0.5 0 0 0 0.707 0zM8.354 9.06a0.5 0.5 0 0 0 0-0.706L7.646 7.646a0.5 0.5 0 0 0-0.707 0L0.646 13.94a0.5 0.5 0 0 0 0 0.707l0.708 0.708a0.5 0.5 0 0 0 0.707 0z" />
</svg>