<svg viewBox="0 0 16 16" fill="currentColor" width="32" height="32" xmlns="http://www.w3.org/2000/svg" xmlns:xlink="http://www.w3.org/1999/xlink">
    <path d="M15 14c0 0 1 0 1-1s-1-4-5-4-5 3-5 4 1 1 1 1zM7.022 13 7 12.996c1e-3-0.264 0.167-1.03 0.76-1.72C8.312 10.629 9.282 10 11 10c1.717 0 2.687 0.63 3.24 1.276 0.593 0.69 0.758 1.457 0.76 1.72l-8e-3 2e-3L14.978 13zM11 7a2 2 0 1 0 0-4 2 2 0 0 0 0 4M14 5a3 3 0 1 1-6 0 3 3 0 0 1 6 0M6.936 9.28a6 6 0 0 0-1.23-0.247A7 7 0 0 0 5 9c-4 0-5 3-5 4q0 1 1 1h4.216A2.24 2.24 0 0 1 5 13c0-1.01 0.377-2.042 1.09-2.904 0.243-0.294 0.526-0.569 0.846-0.816M4.92 10A5.5 5.5 0 0 0 4 13H1c0-0.26 0.164-1.03 0.76-1.724C2.305 10.64 3.252 10.02 4.92 10zM1.5 5.5a3 3 0 1 1 6 0 3 3 0 0 1-6 0M4.5 3.5a2 2 0 1 0 0 4 2 2 0 0 0 0-4" />
</svg>