<svg viewBox="0 0 24 24" fill="currentColor" width="32" height="32" xmlns="http://www.w3.org/2000/svg" xmlns:xlink="http://www.w3.org/1999/xlink">
    <path d="M21.438 5.089a1.002 1.002 0 0 0-0.959 0.015c-0.684 0.389-1.355 0.577-2.053 0.577-2.035 0-3.952-1.629-5.722-3.39-0.375-0.373-1.063-0.373-1.438 0C9.592 3.959 7.598 5.663 5.51 5.663c-0.69 0-1.351-0.184-2.018-0.561-0.298-0.166-0.658-0.171-0.96-0.012S2.031 5.551 2.004 5.891C1.993 6.02 1.06 18.763 11.687 21.932a0.99 0.99 0 0 0 0.286 0.042H12c0.097 0 0.192-0.014 0.285-0.041 10.657-3.17 9.695-15.916 9.684-16.044a1 1 0 0 0-0.531-0.8zM11.986 19.931c-6.979-2.255-7.934-9.412-8.014-12.477 0.505 0.14 1.019 0.209 1.537 0.209 2.492 0 4.65-1.567 6.476-3.283 1.893 1.788 3.983 3.301 6.442 3.301 0.53 0 1.057-0.074 1.575-0.22-0.074 3.065-1.021 10.217-8.016 12.47z" />
</svg>