<svg viewBox="0 0 16 16" fill="currentColor" width="32" height="32" xmlns="http://www.w3.org/2000/svg" xmlns:xlink="http://www.w3.org/1999/xlink">
    <path d="M2.97 1.35A1 1 0 0 1 3.73 1h8.54a1 1 0 0 1 0.76 0.35l2.609 3.044A1.5 1.5 0 0 1 16 5.37v0.255a2.375 2.375 0 0 1-4.25 1.458A2.37 2.37 0 0 1 9.875 8 2.37 2.37 0 0 1 8 7.083 2.37 2.37 0 0 1 6.125 8 2.37 2.37 0 0 1 4.25 7.083 2.375 2.375 0 0 1 0 5.625V5.37a1.5 1.5 0 0 1 0.361-0.976zM4.75 5.625a1.375 1.375 0 0 0 2.75 0 0.5 0.5 0 0 1 1 0 1.375 1.375 0 0 0 2.75 0 0.5 0.5 0 0 1 1 0 1.375 1.375 0 1 0 2.75 0V5.37a0.5 0.5 0 0 0-0.12-0.325L12.27 2H3.73L1.12 5.045A0.5 0.5 0 0 0 1 5.37v0.255a1.375 1.375 0 0 0 2.75 0 0.5 0.5 0 0 1 1 0M1.5 8.5A0.5 0.5 0 0 1 2 9v6h12V9a0.5 0.5 0 0 1 1 0v6h0.5a0.5 0.5 0 0 1 0 1h-15a0.5 0.5 0 0 1 0-1H1V9a0.5 0.5 0 0 1 0.5-0.5M3.5 9A0.5 0.5 0 0 1 4 9.5V13h8V9.5a0.5 0.5 0 0 1 1 0V13a1 1 0 0 1-1 1H4a1 1 0 0 1-1-1V9.5A0.5 0.5 0 0 1 3.5 9" />
</svg>