<svg viewBox="0 0 16 16" fill="currentColor" width="32" height="32" xmlns="http://www.w3.org/2000/svg" xmlns:xlink="http://www.w3.org/1999/xlink">
    <path d="M7.657 6.247c0.11-0.33 0.576-0.33 0.686 0l0.645 1.937a2.89 2.89 0 0 0 1.829 1.828l1.936 0.645c0.33 0.11 0.33 0.576 0 0.686l-1.937 0.645a2.89 2.89 0 0 0-1.828 1.829l-0.645 1.936a0.361 0.361 0 0 1-0.686 0l-0.645-1.937a2.89 2.89 0 0 0-1.828-1.828l-1.937-0.645a0.361 0.361 0 0 1 0-0.686l1.937-0.645a2.89 2.89 0 0 0 1.828-1.828zM3.794 1.148a0.217 0.217 0 0 1 0.412 0L4.593 2.31C4.766 2.828 5.172 3.234 5.69 3.407l1.162 0.387a0.217 0.217 0 0 1 0 0.412L5.69 4.593A1.73 1.73 0 0 0 4.593 5.69L4.206 6.852a0.217 0.217 0 0 1-0.412 0L3.407 5.69A1.73 1.73 0 0 0 2.31 4.593L1.148 4.206a0.217 0.217 0 0 1 0-0.412L2.31 3.407A1.73 1.73 0 0 0 3.407 2.31zM10.863 0.099a0.145 0.145 0 0 1 0.274 0l0.258 0.774c0.115 0.346 0.386 0.617 0.732 0.732l0.774 0.258a0.145 0.145 0 0 1 0 0.274l-0.774 0.258a1.16 1.16 0 0 0-0.732 0.732l-0.258 0.774a0.145 0.145 0 0 1-0.274 0l-0.258-0.774a1.16 1.16 0 0 0-0.732-0.732L9.1 2.137a0.145 0.145 0 0 1 0-0.274l0.774-0.258c0.346-0.115 0.617-0.386 0.732-0.732z" />
</svg>