<svg viewBox="0 0 24 24" fill="currentColor" width="32" height="32" xmlns="http://www.w3.org/2000/svg" xmlns:xlink="http://www.w3.org/1999/xlink">
    <path d="M6.993 12c0 2.761 2.246 5.007 5.007 5.007s5.007-2.246 5.007-5.007S14.761 6.993 12 6.993 6.993 9.239 6.993 12zM12 8.993c1.658 0 3.007 1.349 3.007 3.007S13.658 15.007 12 15.007 8.993 13.658 8.993 12 10.342 8.993 12 8.993zM10.998 19h2v3h-2zM10.998 2h2v3h-2zM1.998 11h3v2h-3zM18.998 11h3v2h-3zM4.219 18.363l2.12-2.122 1.415 1.414-2.12 2.122zM16.24 6.344l2.122-2.122 1.414 1.414-2.122 2.122zM6.342 7.759 4.22 5.637 5.635 4.223l2.12 2.122zM19.776 18.364l-1.414 1.414-2.122-2.122 1.414-1.414z" />
</svg>