<svg viewBox="0 0 16 16" fill="currentColor" width="32" height="32" xmlns="http://www.w3.org/2000/svg" xmlns:xlink="http://www.w3.org/1999/xlink">
    <path d="M4.862 5.276 3.906 7.19a0.51 0.51 0 0 0 0.497 0.731c0.91-0.073 2.35-0.17 3.597-0.17s2.688 0.097 3.597 0.17a0.51 0.51 0 0 0 0.497-0.731l-0.956-1.913A0.5 0.5 0 0 0 10.691 5H5.309a0.5 0.5 0 0 0-0.447 0.276M4 10a1 1 0 1 1-2 0 1 1 0 0 1 2 0M14 10a1 1 0 1 1-2 0 1 1 0 0 1 2 0M5 10a1 1 0 0 1 1-1h4a1 1 0 1 1 0 2H6a1 1 0 0 1-1-1" />
    <path d="M6 1a1 1 0 0 0-1 1v1H4.819A2.5 2.5 0 0 0 2.52 4.515L1.728 6.363a0.8 0.8 0 0 1-0.38 0.404c-0.5 0.25-0.855 0.715-0.965 1.262L0.05 9.708a2.5 2.5 0 0 0-0.049 0.49v0.413c0 0.814 0.39 1.543 1 1.997V14.5a0.5 0.5 0 0 0 0.5 0.5h2a0.5 0.5 0 0 0 0.5-0.5v-1.338c1.292 0.048 2.745 0.088 4 0.088s2.708-0.04 4-0.088V14.5a0.5 0.5 0 0 0 0.5 0.5h2a0.5 0.5 0 0 0 0.5-0.5v-1.892c0.61-0.454 1-1.183 1-1.997v-0.413q0-0.248-0.049-0.49l-0.335-1.68a1.8 1.8 0 0 0-0.964-1.261 0.8 0.8 0 0 1-0.381-0.404L13.48 4.515A2.5 2.5 0 0 0 11.181 3H11V2a1 1 0 0 0-1-1zM4.819 4h6.362a1.5 1.5 0 0 1 1.379 0.91l0.792 1.847a1.8 1.8 0 0 0 0.853 0.904c0.222 0.112 0.381 0.32 0.43 0.564l0.336 1.679q0.03 0.146 0.029 0.294v0.413a1.48 1.48 0 0 1-1.408 1.484C12.037 12.165 9.806 12.25 8 12.25s-4.037-0.084-5.592-0.155A1.48 1.48 0 0 1 1 10.611v-0.413q0-0.148 0.03-0.294l0.335-1.68a0.8 0.8 0 0 1 0.43-0.563C2.178 7.471 2.48 7.15 2.648 6.757L3.44 4.909A1.5 1.5 0 0 1 4.819 4z" />
</svg>