<svg viewBox="0 0 32 32" fill="currentColor" width="32" height="32" xmlns="http://www.w3.org/2000/svg" xmlns:xlink="http://www.w3.org/1999/xlink">
    <path d="M13 17.26V6a4 4 0 0 0-8 0v11.26a7 7 0 1 0 8 0zM9 4a2 2 0 0 1 2 2v7H7V6a2 2 0 0 1 2-2zM9 28a5 5 0 0 1-2.5-9.33L7 18.39V15h4v3.39l0.5 0.28A5 5 0 0 1 9 28z" />
    <rect width="10" height="2" x="20" y="4" />
    <rect width="7" height="2" x="20" y="10" />
    <rect width="10" height="2" x="20" y="16" />
    <rect width="7" height="2" x="20" y="22" />
</svg>