<svg viewBox="0 0 16 16" fill="currentColor" width="32" height="32" xmlns="http://www.w3.org/2000/svg" xmlns:xlink="http://www.w3.org/1999/xlink">
    <path d="M4 4.85v0.9h1v-0.9zM11 4.85v0.9h1v-0.9zM4 6.65v0.9h1v-0.9zM11 6.65v0.9h1v-0.9zM4 8.45v0.9h1v-0.9zM11 8.45v0.9h1v-0.9zM4 10.25v0.9h1v-0.9zM11 10.25v0.9h1v-0.9z" />
    <path d="M1.5 3A1.5 1.5 0 0 0 0 4.5V6a0.5 0.5 0 0 0 0.5 0.5 1.5 1.5 0 1 1 0 3A0.5 0.5 0 0 0 0 10v1.5A1.5 1.5 0 0 0 1.5 13h13a1.5 1.5 0 0 0 1.5-1.5V10a0.5 0.5 0 0 0-0.5-0.5 1.5 1.5 0 0 1 0-3A0.5 0.5 0 0 0 16 6V4.5A1.5 1.5 0 0 0 14.5 3zM1 4.5A0.5 0.5 0 0 1 1.5 4h13A0.5 0.5 0 0 1 15 4.5v1.05a2.5 2.5 0 0 0 0 4.9v1.05a0.5 0.5 0 0 1-0.5 0.5h-13A0.5 0.5 0 0 1 1 11.5v-1.05a2.5 2.5 0 0 0 0-4.9z" />
</svg>