<svg viewBox="0 0 16 16" fill="currentColor" width="32" height="32" xmlns="http://www.w3.org/2000/svg" xmlns:xlink="http://www.w3.org/1999/xlink">
    <path d="M8 0a0.5 0.5 0 0 1 0.5 0.5v0.514C12.625 1.238 16 4.22 16 8c0 0 0 0.5-0.5 0.5-0.149 0-0.352-0.145-0.352-0.145l-4e-3-4e-3-0.025-0.023a3.5 3.5 0 0 0-0.555-0.394A3.17 3.17 0 0 0 13 7.5c-0.638 0-1.178 0.213-1.564 0.434a3.5 3.5 0 0 0-0.555 0.394l-0.025 0.023-3e-3 3e-3c0 0-0.204 0.146-0.353 0.146s-0.352-0.145-0.352-0.145l-4e-3-4e-3-0.025-0.023a3.5 3.5 0 0 0-0.555-0.394 3.3 3.3 0 0 0-1.064-0.39V13.5H8 8.5v0.039l-5e-3 0.083a3 3 0 0 1-0.298 1.102 2.26 2.26 0 0 1-0.763 0.88C7.06 15.851 6.587 16 6 16s-1.061-0.148-1.434-0.396a2.26 2.26 0 0 1-0.763-0.88 3 3 0 0 1-0.302-1.185v-0.025l-1e-3-9e-3v-3e-3c0 0 0-2e-3 0.5-2e-3H3.5V13a0.5 0.5 0 0 1 1 0v0.506l3e-3 0.044a2 2 0 0 0 0.195 0.726c0.095 0.191 0.23 0.367 0.423 0.495C5.311 14.898 5.587 15 6 15s0.689-0.102 0.879-0.229c0.193-0.128 0.328-0.304 0.424-0.495a2 2 0 0 0 0.197-0.77V7.544a3.3 3.3 0 0 0-1.064 0.39 3.5 3.5 0 0 0-0.58 0.417l-4e-3 4e-3c0 0-0.202 0.145-0.352 0.145S5.148 8.355 5.148 8.355l-4e-3-4e-3a3.5 3.5 0 0 0-0.58-0.417A3.17 3.17 0 0 0 3 7.5c-0.638 0-1.177 0.213-1.564 0.434a3.5 3.5 0 0 0-0.58 0.417l-4e-3 4e-3c0 0-0.202 0.145-0.352 0.145C0 8.5 0 8 0 8 0 4.22 3.375 1.238 7.5 1.014V0.5A0.5 0.5 0 0 1 8 0M6.577 2.123c-2.833 0.5-4.99 2.458-5.474 4.854A4.1 4.1 0 0 1 3 6.5c0.806 0 1.48 0.25 1.962 0.511a9.7 9.7 0 0 1 0.344-2.358c0.242-0.868 0.64-1.765 1.271-2.53M5.962 7.053A4.16 4.16 0 0 1 8 6.5a4.16 4.16 0 0 1 2.038 0.553 8.7 8.7 0 0 0-0.307-2.13C9.434 3.858 8.898 2.83 8 2.117 7.102 2.829 6.566 3.857 6.269 4.921a8.7 8.7 0 0 0-0.307 2.132zM9.422 2.123c0.631 0.765 1.03 1.662 1.272 2.53 0.233 0.833 0.328 1.66 0.344 2.358A4.14 4.14 0 0 1 13 6.5c0.77 0 1.42 0.23 1.897 0.477-0.484-2.396-2.641-4.355-5.475-4.854z" />
</svg>